# xmcd CD database file
#
# Track frame offsets:
#	150
#	6777
#	23863
#	50779
#	71569
#	92429
#	106600
#	123986
#	136591
#	158279
#	180222
#	196364
#	210206
#	224866
#	249877
#	279455
#
# Disc length: 4047 seconds
#
# Revision: 0
# Processed by: cddbd v1.5.2PL0 Copyright (c) Steve Scherf et al.
# Submitted via: CDex 1.51
#
DISCID=c90fcd10
DTITLE=Dutch Swing College Band - 65 - Jubilee Concert
DYEAR=2010
DGENRE=Jazz
TTITLE0=DSCB - Way Down Yonder In New Orleans
TTITLE1=DSCB - Tears
TTITLE2=DSCB - Basin Street Blues
TTITLE3=DSCB - Wolverine Blues
TTITLE4=DSCB - Nuages
TTITLE5=DSCB and Mrs. Einstein - Them There Eyes
TTITLE6=DSCB and Mrs. Einstein - Smile
TTITLE7=DSCB and Mrs. Einstein - How High The Moon
TTITLE8=DSCB - Little One
TTITLE9=DSCB - China Boy
TTITLE10=DSCB and Laura Fygi - Le Jazz Hot
TTITLE11=DSCB and Laura Fygi - C'est Si Bon
TTITLE12=DSCB and Laura Fygi - 's Wonderful
TTITLE13=DSCB and Dim Kesber - Creole Love Call
TTITLE14=DSCB and Dim Kesber - Weary Blues
TTITLE15=DSCB and Freek de Jonge - Saint James Infirmary
EXTD=YEAR: 2010
EXTT0=
EXTT1=
EXTT2=
EXTT3=
EXTT4=
EXTT5=
EXTT6=
EXTT7=
EXTT8=
EXTT9=
EXTT10=
EXTT11=
EXTT12=
EXTT13=
EXTT14=
EXTT15=
PLAYORDER=
